<svg width="343" height="109" viewBox="0 0 343 109" fill="none" xmlns="http://www.w3.org/2000/svg">
<g clip-path="url(#clip0_31_7203)">
<path d="M57.6736 33.6895L47.8019 70.7515C47.0872 73.4406 44.6221 75.3153 41.8024 75.3153C40.4175 75.3153 39.1101 74.8616 38.0631 74.0801C37.0106 73.2985 36.2073 72.1835 35.8306 70.8772L29.1276 47.6923L22.4689 70.8608C21.7155 73.4898 19.2725 75.3153 16.5027 75.3153H15.9376C13.129 75.3153 10.6639 73.4406 9.93818 70.757L0 33.6895H4.84722C7.11848 33.6895 9.10169 35.2034 9.67227 37.3733L16.8185 64.5536L24.6405 37.1109C25.2221 35.0886 27.089 33.6895 29.2218 33.6895C30.2854 33.6895 31.2881 34.0393 32.0913 34.6405C32.8946 35.2417 33.5095 36.0888 33.8031 37.1L41.6584 64.4716L48.7048 37.3842C49.2699 35.2089 51.2586 33.6895 53.5299 33.6895H57.6736Z" fill="#FF0049"/>
<path d="M63.2246 33.6836H71.5397V75.3094H63.2246V33.6836Z" fill="#FF0049"/>
<path d="M133.678 76.1464C129.496 76.1464 125.984 75.2227 123.131 73.3808C120.278 71.5389 118.267 69.0302 117.104 65.8601L124.216 61.7555C125.862 65.9968 129.097 68.1174 133.922 68.1174C136.249 68.1174 137.96 67.702 139.046 66.8713C140.132 66.0405 140.675 64.9856 140.675 63.7176C140.675 62.2529 140.01 61.1105 138.686 60.2962C137.362 59.4873 134.991 58.6019 131.573 57.6508C129.684 57.0988 128.089 56.5413 126.781 55.9838C125.474 55.4318 124.167 54.6885 122.865 53.7539C121.557 52.8247 120.566 51.6442 119.879 50.2177C119.198 48.7911 118.854 47.1241 118.854 45.2221C118.854 41.4563 120.211 38.4557 122.92 36.2148C125.635 33.974 128.897 32.8535 132.714 32.8535C136.127 32.8535 139.135 33.6788 141.727 35.324C144.32 36.9691 146.336 39.2592 147.782 42.1942L140.791 46.1786C139.102 42.6096 136.409 40.8278 132.714 40.8278C130.986 40.8278 129.629 41.2158 128.648 41.9865C127.662 42.7571 127.169 43.7628 127.169 44.9871C127.169 46.2934 127.723 47.3537 128.825 48.1681C129.928 48.9824 132.05 49.8624 135.185 50.8134C136.47 51.2124 137.445 51.5185 138.11 51.7371C138.775 51.9557 139.678 52.2946 140.824 52.7482C141.971 53.2019 142.852 53.6282 143.478 54.0272C144.098 54.4261 144.813 54.9618 145.616 55.634C146.419 56.3063 147.034 57.0004 147.455 57.7164C147.876 58.4324 148.236 59.2905 148.541 60.3016C148.84 61.3128 148.995 62.4114 148.995 63.6029C148.995 67.4506 147.577 70.5004 144.746 72.7632C141.916 75.0259 138.226 76.1518 133.689 76.1518L133.678 76.1464Z" fill="black"/>
<path d="M169.84 33.6836C173.901 33.6836 177.313 35.0336 180.089 37.7281C182.864 40.4226 184.249 43.7348 184.249 47.6591C184.249 51.5834 182.864 54.8955 180.089 57.59C177.319 60.2846 173.901 61.6346 169.84 61.6346H162.428V75.3094H154.113V33.6836H169.846H169.84ZM169.84 53.9609C171.608 53.9609 173.076 53.3597 174.239 52.1463C175.402 50.9384 175.989 49.4409 175.989 47.6591C175.989 45.8773 175.408 44.3305 174.239 43.139C173.076 41.9475 171.608 41.3573 169.84 41.3573H162.428V53.9663H169.84V53.9609Z" fill="black"/>
<path d="M197.989 33.6836V67.1056C197.989 71.6366 194.266 75.3094 189.674 75.3094V41.8874C189.674 37.3565 193.396 33.6836 197.989 33.6836Z" fill="black"/>
<path d="M271.101 53.7259C273.028 54.6386 274.568 55.9449 275.71 57.6502C276.856 59.3554 277.427 61.3176 277.427 63.5366C277.427 66.8651 276.241 69.6635 273.87 71.9208C271.499 74.1781 268.608 75.3094 265.19 75.3094H246.986V33.6836H263.86C267.156 33.6836 269.948 34.7767 272.236 36.952C274.524 39.1328 275.671 41.8273 275.671 45.0411C275.671 48.7303 274.142 51.6216 271.089 53.7204L271.101 53.7259ZM263.866 38.8595H252.592V51.5834H263.866C265.633 51.5834 267.117 50.9712 268.325 49.7415C269.533 48.5117 270.131 47.0032 270.131 45.2214C270.131 43.4396 269.516 41.9803 268.292 40.7342C267.068 39.4826 265.589 38.8595 263.86 38.8595H263.866ZM265.19 70.139C267.079 70.139 268.663 69.4831 269.954 68.1768C271.239 66.8706 271.882 65.2637 271.882 63.3617C271.882 61.4597 271.228 59.9129 269.921 58.6066C268.613 57.3004 267.034 56.6445 265.19 56.6445H252.592V70.1445H265.19V70.139Z" fill="black"/>
<path d="M289.664 70.0789H308.548V75.3094H284.058V33.6836H308.548V38.9141H289.664V51.6981H308.548V56.874H289.664V70.0734V70.0789Z" fill="black"/>
<path d="M343 33.6836V38.9141H330.525V75.3094H324.98V38.9141H312.565V33.6836H343Z" fill="black"/>
<path d="M238.556 33.6895V71.2052C238.556 72.342 238.09 73.3695 237.337 74.1129C236.584 74.8562 235.537 75.3153 234.39 75.3153C233.033 75.3153 231.759 74.6594 230.983 73.5608L214.159 49.8621V53.8028C214.159 83.8908 189.751 108.836 159.261 109C140.443 109.098 123.02 99.8393 112.711 84.2788C122.278 95.2373 157.593 112.694 183.912 94.565C196.798 85.2572 205.805 70.6094 205.805 54.5024V37.805C205.805 36.6682 206.27 35.6407 207.024 34.8919C207.777 34.1486 208.824 33.6895 209.977 33.6895C211.334 33.6895 212.613 34.3453 213.389 35.4384L230.235 59.0443V33.6895H238.55H238.556Z" fill="black"/>
<path d="M205.218 24.7161C184.389 4.0617 159.328 0.186606 134.023 14.7032C120.882 22.8851 112.119 38.074 112.119 54.498V71.1954C112.119 72.3322 111.653 73.3597 110.9 74.1085C110.141 74.8518 109.1 75.311 107.947 75.311C106.585 75.311 105.31 74.6551 104.529 73.5565L87.6998 49.8578V75.311H79.3848V37.7898C79.3848 36.6529 79.8501 35.6254 80.6035 34.893C81.3513 34.1497 82.3873 33.6906 83.5395 33.6906C84.8967 33.6906 86.1598 34.3355 86.9464 35.4286L103.77 59.0454V55.1976C103.765 25.1096 128.178 0.159278 158.669 0.000776225C177.487 -0.0976042 194.915 9.16108 205.218 24.7161Z" fill="#FF0049"/>
<path d="M24.2911 38.3131L16.8125 64.5479C16.8125 64.5479 19.7596 77.2389 22.4685 70.8606L29.1272 47.692C29.1272 47.692 26.1524 35.7443 24.2855 38.3131H24.2911Z" fill="url(#paint0_radial_31_7203)"/>
<path d="M24.2911 38.3131L16.8125 64.5479C16.8125 64.5479 19.7596 77.2389 22.4685 70.8606L29.1272 47.692C29.1272 47.692 26.1524 35.7443 24.2855 38.3131H24.2911Z" fill="url(#paint1_radial_31_7203)"/>
<path d="M48.7047 37.3783L41.6582 64.4657C41.6582 64.4657 44.8491 76.654 47.8072 70.7457L57.6789 33.6836H53.5353C51.2585 33.6836 49.2753 35.203 48.7102 37.3783H48.7047Z" fill="url(#paint2_radial_31_7203)"/>
<path d="M87.694 49.8619C87.694 49.8619 79.3789 36.4822 79.3789 47.0253V75.3151H87.694V49.8619Z" fill="url(#paint3_radial_31_7203)"/>
<path d="M134.021 14.7032C139.483 11.5715 144.929 9.29779 150.33 7.86034L133.661 6.16602C115.868 15.3974 103.764 34.0186 103.764 55.1922V59.04C103.764 59.04 112.118 72.9116 112.118 66.0742V54.4981C112.118 38.0686 120.881 22.8852 134.021 14.7032Z" fill="url(#paint4_radial_31_7203)"/>
<path d="M138.68 60.2969C140.004 61.1112 140.669 62.2481 140.669 63.7183C140.669 64.9863 140.126 66.0357 139.04 66.872C137.955 67.7027 136.248 68.1181 133.916 68.1181C129.097 68.1181 125.861 65.9975 124.211 61.7562L117.098 65.8608C118.261 69.0309 120.272 71.5396 123.125 73.3815C125.978 75.2234 129.49 76.1471 133.672 76.1471C138.215 76.1471 141.899 75.0157 144.73 72.7584C149.455 65.4017 138.675 60.3023 138.675 60.3023L138.68 60.2969Z" fill="url(#paint5_radial_31_7203)"/>
<path d="M128.83 48.1681C127.727 47.3537 127.173 46.2934 127.173 44.9871C127.173 43.7573 127.666 42.7571 128.652 41.9865C129.638 41.2158 130.99 40.8278 132.718 40.8278C136.413 40.8278 139.106 42.6096 140.795 46.1786L147.786 42.1942C146.34 39.2592 144.318 36.9691 141.731 35.324C139.139 33.6788 136.136 32.8535 132.718 32.8535C128.902 32.8535 125.639 33.974 122.924 36.2148C118.581 43.8011 128.83 48.1681 128.83 48.1681Z" fill="url(#paint6_radial_31_7203)"/>
<path d="M162.434 61.6344V75.3092H154.119V68.0455C154.119 64.4983 157.027 61.6289 160.623 61.6289H162.44L162.434 61.6344Z" fill="url(#paint7_radial_31_7203)"/>
<path d="M230.24 59.0443C230.24 59.0443 238.555 71.8993 238.555 64.6957V33.6895H230.24V59.0443Z" fill="url(#paint8_radial_31_7203)"/>
<path d="M184.338 94.2493L194.254 96.2006C206.436 86.0236 214.163 70.7255 214.163 53.8041V49.8634C214.163 49.8634 205.81 38.1561 205.81 43.9004V54.5037C205.81 70.4304 196.996 84.9305 184.343 94.2493H184.338Z" fill="url(#paint9_radial_31_7203)"/>
</g>
<defs>
<radialGradient id="paint0_radial_31_7203" cx="0" cy="0" r="1" gradientUnits="userSpaceOnUse" gradientTransform="translate(38.0627 38.6902) scale(34.562 34.0997)">
<stop stop-color="#6A0058"/>
<stop offset="1" stop-color="#C50054" stop-opacity="0"/>
</radialGradient>
<radialGradient id="paint1_radial_31_7203" cx="0" cy="0" r="1" gradientUnits="userSpaceOnUse" gradientTransform="translate(7.40059 75.8233) scale(39.7859 39.2538)">
<stop stop-color="#6A0058"/>
<stop offset="1" stop-color="#C50054" stop-opacity="0"/>
</radialGradient>
<radialGradient id="paint2_radial_31_7203" cx="0" cy="0" r="1" gradientUnits="userSpaceOnUse" gradientTransform="translate(34.8444 76.1839) scale(37.5036 37.002)">
<stop stop-color="#6A0058"/>
<stop offset="1" stop-color="#C50054" stop-opacity="0"/>
</radialGradient>
<radialGradient id="paint3_radial_31_7203" cx="0" cy="0" r="1" gradientUnits="userSpaceOnUse" gradientTransform="translate(97.6377 32.1917) scale(47.5692 46.9329)">
<stop stop-color="#6A0058"/>
<stop offset="1" stop-color="#C50054" stop-opacity="0"/>
</radialGradient>
<radialGradient id="paint4_radial_31_7203" cx="0" cy="0" r="1" gradientUnits="userSpaceOnUse" gradientTransform="translate(92.1082 75.5297) scale(51.7461 51.054)">
<stop stop-color="#6A0058"/>
<stop offset="1" stop-color="#C50054" stop-opacity="0"/>
</radialGradient>
<radialGradient id="paint5_radial_31_7203" cx="0" cy="0" r="1" gradientUnits="userSpaceOnUse" gradientTransform="translate(155.05 53.7163) scale(39.1544 38.6307)">
<stop offset="0.12" stop-color="#666666"/>
<stop offset="1" stop-color="white" stop-opacity="0"/>
</radialGradient>
<radialGradient id="paint6_radial_31_7203" cx="0" cy="0" r="1" gradientUnits="userSpaceOnUse" gradientTransform="translate(112.227 49.2065) scale(38.0853 37.5758)">
<stop offset="0.12" stop-color="#666666"/>
<stop offset="1" stop-color="white" stop-opacity="0"/>
</radialGradient>
<radialGradient id="paint7_radial_31_7203" cx="0" cy="0" r="1" gradientUnits="userSpaceOnUse" gradientTransform="translate(152.59 50.5666) scale(34.3903 33.9303)">
<stop offset="0.12" stop-color="#666666"/>
<stop offset="1" stop-color="white" stop-opacity="0"/>
</radialGradient>
<radialGradient id="paint8_radial_31_7203" cx="0" cy="0" r="1" gradientUnits="userSpaceOnUse" gradientTransform="translate(220.424 75.676) scale(40.9105 40.3633)">
<stop offset="0.12" stop-color="#666666"/>
<stop offset="1" stop-color="white" stop-opacity="0"/>
</radialGradient>
<radialGradient id="paint9_radial_31_7203" cx="0" cy="0" r="1" gradientUnits="userSpaceOnUse" gradientTransform="translate(225.359 31.9035) scale(58.1777 57.3995)">
<stop offset="0.12" stop-color="#666666"/>
<stop offset="1" stop-color="white" stop-opacity="0"/>
</radialGradient>
<clipPath id="clip0_31_7203">
<rect width="343" height="109" fill="white"/>
</clipPath>
</defs>
</svg>
