<svg width="481" height="155" viewBox="0 0 481 155" fill="none" xmlns="http://www.w3.org/2000/svg">
<g clip-path="url(#clip0_296_31353)">
<path d="M80.8775 47.9075L67.0341 100.61C66.032 104.434 62.575 107.1 58.6208 107.1C56.6787 107.1 54.8454 106.455 53.3771 105.344C51.9011 104.232 50.7747 102.647 50.2464 100.789L40.8466 67.8198L31.5089 100.766C30.4524 104.504 27.0265 107.1 23.1423 107.1H22.3499C18.4113 107.1 14.9543 104.434 13.9366 100.618L0 47.9075H6.79741C9.98248 47.9075 12.7636 50.0604 13.5637 53.146L23.5851 91.7969L34.5541 52.7729C35.3698 49.8972 37.9878 47.9075 40.9787 47.9075C42.4702 47.9075 43.8763 48.405 45.0027 49.2599C46.1291 50.1148 46.9914 51.3195 47.4032 52.7574L58.4189 91.6803L68.3003 53.1615C69.0927 50.0682 71.8816 47.9075 75.0667 47.9075H80.8775Z" fill="#FF0049"/>
<path d="M88.6611 47.8998H100.322V107.092H88.6611V47.8998Z" fill="#FF0049"/>
<path d="M187.461 108.282C181.596 108.282 176.671 106.968 172.67 104.349C168.669 101.73 165.849 98.1622 164.218 93.6544L174.192 87.8175C176.5 93.8487 181.036 96.8643 187.803 96.8643C191.066 96.8643 193.466 96.2736 194.989 95.0922C196.511 93.9109 197.273 92.4109 197.273 90.6077C197.273 88.5248 196.34 86.9004 194.484 85.7424C192.627 84.5921 189.302 83.333 184.509 81.9806C181.86 81.1956 179.623 80.4029 177.789 79.6101C175.956 78.8251 174.123 77.7681 172.297 76.4391C170.464 75.1178 169.073 73.439 168.11 71.4105C167.154 69.382 166.673 67.0115 166.673 64.3068C166.673 58.9517 168.576 54.6848 172.375 51.4983C176.181 48.3117 180.757 46.7184 186.109 46.7184C190.895 46.7184 195.113 47.892 198.749 50.2314C202.384 52.5708 205.212 55.8273 207.24 60.001L197.436 65.6669C195.066 60.5917 191.291 58.0579 186.109 58.0579C183.686 58.0579 181.782 58.6098 180.407 59.7056C179.024 60.8015 178.333 62.2316 178.333 63.9726C178.333 65.8301 179.11 67.3379 180.656 68.4959C182.202 69.654 185.177 70.9053 189.574 72.2577C191.376 72.825 192.744 73.2603 193.676 73.5712C194.608 73.8821 195.874 74.3639 197.482 75.009C199.09 75.6541 200.326 76.2603 201.203 76.8277C202.074 77.3951 203.076 78.1567 204.202 79.1127C205.328 80.0687 206.191 81.0557 206.781 82.0739C207.372 83.092 207.877 84.3123 208.304 85.7501C208.723 87.188 208.941 88.7502 208.941 90.4445C208.941 95.9161 206.952 100.253 202.982 103.471C199.013 106.688 193.839 108.289 187.477 108.289L187.461 108.282Z" fill="white"/>
<path d="M238.174 47.8998C243.868 47.8998 248.653 49.8195 252.545 53.6512C256.437 57.4828 258.38 62.1928 258.38 67.7732C258.38 73.3536 256.437 78.0635 252.545 81.8952C248.661 85.7268 243.868 87.6466 238.174 87.6466H227.78V107.092H216.119V47.8998H238.182H238.174ZM238.174 76.7345C240.652 76.7345 242.711 75.8795 244.342 74.1541C245.973 72.4365 246.797 70.3069 246.797 67.7732C246.797 65.2394 245.981 63.0399 244.342 61.3456C242.711 59.6513 240.652 58.8119 238.174 58.8119H227.78V76.7422H238.174V76.7345Z" fill="white"/>
<path d="M277.645 47.8998V95.4265C277.645 101.87 272.424 107.092 265.984 107.092V59.5658C265.984 53.1227 271.205 47.8998 277.645 47.8998Z" fill="white"/>
<path d="M380.174 76.4003C382.877 77.6982 385.037 79.5558 386.637 81.9807C388.245 84.4056 389.045 87.1958 389.045 90.3513C389.045 95.0845 387.383 99.0638 384.058 102.274C380.733 105.484 376.678 107.092 371.885 107.092H346.357V47.8998H370.02C374.642 47.8998 378.558 49.4542 381.766 52.5475C384.974 55.6486 386.583 59.4803 386.583 64.0503C386.583 69.2965 384.438 73.408 380.158 76.3925L380.174 76.4003ZM370.028 55.26H354.219V73.3536H370.028C372.506 73.3536 374.588 72.4831 376.282 70.7344C377.975 68.9856 378.814 66.8405 378.814 64.3068C378.814 61.7731 377.952 59.6979 376.235 57.9259C374.518 56.146 372.444 55.26 370.02 55.26H370.028ZM371.885 99.74C374.534 99.74 376.755 98.8074 378.565 96.9498C380.368 95.0923 381.269 92.8073 381.269 90.1026C381.269 87.3979 380.352 85.1983 378.519 83.3408C376.686 81.4832 374.471 80.5506 371.885 80.5506H354.219V99.7478H371.885V99.74Z" fill="white"/>
<path d="M406.205 99.6545H432.688V107.092H398.344V47.8998H432.688V55.3377H406.205V73.5168H432.688V80.877H406.205V99.6468V99.6545Z" fill="white"/>
<path d="M481 47.8998V55.3377H463.506V107.092H455.729V55.3377H438.32V47.8998H481Z" fill="white"/>
<path d="M334.534 47.9075V101.256C334.534 102.872 333.881 104.333 332.825 105.39C331.768 106.447 330.3 107.1 328.692 107.1C326.789 107.1 325.002 106.168 323.914 104.605L300.322 70.9053V76.5091C300.322 119.295 266.094 154.767 223.336 155C196.947 155.14 172.515 141.974 158.058 119.847C171.474 135.43 220.998 160.254 257.906 134.474C275.975 121.238 288.607 100.408 288.607 77.5039V53.76C288.607 52.1434 289.259 50.6822 290.316 49.6174C291.372 48.5604 292.84 47.9075 294.456 47.9075C296.36 47.9075 298.154 48.8402 299.242 50.3946L322.866 83.9625V47.9075H334.526H334.534Z" fill="white"/>
<path d="M287.783 35.1457C258.574 5.77471 223.429 0.264259 187.943 20.9071C169.516 32.542 157.226 54.1408 157.226 77.4961V101.24C157.226 102.857 156.574 104.318 155.517 105.383C154.453 106.44 152.992 107.092 151.376 107.092C149.465 107.092 147.679 106.16 146.583 104.598L122.983 70.8976V107.092H111.322V53.7367C111.322 52.12 111.975 50.6589 113.031 49.6174C114.08 48.5604 115.533 47.9075 117.149 47.9075C119.052 47.9075 120.823 48.8247 121.926 50.3791L145.519 83.9626V78.491C145.511 35.7053 179.747 0.225398 222.505 5.17361e-06C248.894 -0.139894 273.334 13.0261 287.783 35.1457Z" fill="#FF0049"/>
<path d="M34.0646 54.4828L23.5771 91.7891C23.5771 91.7891 27.71 109.836 31.5088 100.766L40.8464 67.8198C40.8464 67.8198 36.6748 50.8299 34.0568 54.4828H34.0646Z" fill="url(#paint0_radial_296_31353)"/>
<path d="M34.0646 54.4828L23.5771 91.7891C23.5771 91.7891 27.71 109.836 31.5088 100.766L40.8464 67.8198C40.8464 67.8198 36.6748 50.8299 34.0568 54.4828H34.0646Z" fill="url(#paint1_radial_296_31353)"/>
<path d="M68.3004 53.1538L58.4189 91.6725C58.4189 91.6725 62.8936 109.004 67.0419 100.603L80.8853 47.8998H75.0745C71.8817 47.8998 69.1006 50.0604 68.3082 53.1538H68.3004Z" fill="url(#paint2_radial_296_31353)"/>
<path d="M122.975 70.9053C122.975 70.9053 111.314 51.8791 111.314 66.8716V107.1H122.975V70.9053Z" fill="url(#paint3_radial_296_31353)"/>
<path d="M187.942 20.9071C195.602 16.4537 203.238 13.2204 210.812 11.1764L187.437 8.767C162.485 21.8942 145.511 48.3739 145.511 78.4832V83.9548C145.511 83.9548 157.226 103.681 157.226 93.9575V77.4961C157.226 54.133 169.515 32.542 187.942 20.9071Z" fill="url(#paint4_radial_296_31353)"/>
<path d="M194.476 85.7424C196.333 86.9004 197.265 88.517 197.265 90.6077C197.265 92.4109 196.503 93.9031 194.981 95.0923C193.458 96.2736 191.066 96.8643 187.795 96.8643C181.036 96.8643 176.5 93.8487 174.185 87.8175L164.21 93.6544C165.841 98.1623 168.661 101.73 172.662 104.349C176.663 106.968 181.588 108.282 187.453 108.282C193.823 108.282 198.989 106.673 202.959 103.463C209.586 93.0016 194.468 85.7501 194.468 85.7501L194.476 85.7424Z" fill="url(#paint5_radial_296_31353)"/>
<path d="M180.663 68.4959C179.117 67.3379 178.341 65.8301 178.341 63.9726C178.341 62.2238 179.032 60.8015 180.415 59.7056C181.798 58.6098 183.693 58.058 186.117 58.058C191.298 58.058 195.074 60.5917 197.443 65.6669L207.247 60.001C205.219 55.8273 202.384 52.5708 198.756 50.2314C195.12 47.892 190.91 46.7184 186.117 46.7184C180.764 46.7184 176.189 48.3117 172.382 51.4983C166.292 62.286 180.663 68.4959 180.663 68.4959Z" fill="url(#paint6_radial_296_31353)"/>
<path d="M227.786 87.6466V107.092H216.126V96.7633C216.126 91.7192 220.204 87.6388 225.246 87.6388H227.794L227.786 87.6466Z" fill="url(#paint7_radial_296_31353)"/>
<path d="M322.873 83.9625C322.873 83.9625 334.534 102.243 334.534 91.9989V47.9075H322.873V83.9625Z" fill="url(#paint8_radial_296_31353)"/>
<path d="M258.504 134.023L272.409 136.798C289.492 122.326 300.329 100.572 300.329 76.509V70.9053C300.329 70.9053 288.614 54.2574 288.614 62.4259V77.5039C288.614 100.152 276.255 120.771 258.512 134.023H258.504Z" fill="url(#paint9_radial_296_31353)"/>
</g>
<defs>
<radialGradient id="paint0_radial_296_31353" cx="0" cy="0" r="1" gradientUnits="userSpaceOnUse" gradientTransform="translate(53.377 55.0191) scale(48.4675 48.4904)">
<stop stop-color="#6A0058"/>
<stop offset="1" stop-color="#C50054" stop-opacity="0"/>
</radialGradient>
<radialGradient id="paint1_radial_296_31353" cx="0" cy="0" r="1" gradientUnits="userSpaceOnUse" gradientTransform="translate(10.3785 107.823) scale(55.7931 55.8196)">
<stop stop-color="#6A0058"/>
<stop offset="1" stop-color="#C50054" stop-opacity="0"/>
</radialGradient>
<radialGradient id="paint2_radial_296_31353" cx="0" cy="0" r="1" gradientUnits="userSpaceOnUse" gradientTransform="translate(48.8637 108.336) scale(52.5925 52.6175)">
<stop stop-color="#6A0058"/>
<stop offset="1" stop-color="#C50054" stop-opacity="0"/>
</radialGradient>
<radialGradient id="paint3_radial_296_31353" cx="0" cy="0" r="1" gradientUnits="userSpaceOnUse" gradientTransform="translate(136.919 45.778) scale(66.7078 66.7395)">
<stop stop-color="#6A0058"/>
<stop offset="1" stop-color="#C50054" stop-opacity="0"/>
</radialGradient>
<radialGradient id="paint4_radial_296_31353" cx="0" cy="0" r="1" gradientUnits="userSpaceOnUse" gradientTransform="translate(129.166 107.403) scale(72.5652 72.5997)">
<stop stop-color="#6A0058"/>
<stop offset="1" stop-color="#C50054" stop-opacity="0"/>
</radialGradient>
<radialGradient id="paint5_radial_296_31353" cx="0" cy="0" r="1" gradientUnits="userSpaceOnUse" gradientTransform="translate(217.432 76.3847) scale(54.9075 54.9336)">
<stop offset="0.12" stop-color="#666666"/>
<stop offset="1" stop-color="white" stop-opacity="0"/>
</radialGradient>
<radialGradient id="paint6_radial_296_31353" cx="0" cy="0" r="1" gradientUnits="userSpaceOnUse" gradientTransform="translate(157.381 69.9727) scale(53.4082 53.4335)">
<stop offset="0.12" stop-color="#666666"/>
<stop offset="1" stop-color="white" stop-opacity="0"/>
</radialGradient>
<radialGradient id="paint7_radial_296_31353" cx="0" cy="0" r="1" gradientUnits="userSpaceOnUse" gradientTransform="translate(213.982 71.908) scale(48.2267 48.2495)">
<stop offset="0.12" stop-color="#666666"/>
<stop offset="1" stop-color="white" stop-opacity="0"/>
</radialGradient>
<radialGradient id="paint8_radial_296_31353" cx="0" cy="0" r="1" gradientUnits="userSpaceOnUse" gradientTransform="translate(309.107 107.613) scale(57.3701 57.3973)">
<stop offset="0.12" stop-color="#666666"/>
<stop offset="1" stop-color="white" stop-opacity="0"/>
</radialGradient>
<radialGradient id="paint9_radial_296_31353" cx="0" cy="0" r="1" gradientUnits="userSpaceOnUse" gradientTransform="translate(316.029 45.366) scale(81.5844 81.6231)">
<stop offset="0.12" stop-color="#666666"/>
<stop offset="1" stop-color="white" stop-opacity="0"/>
</radialGradient>
<clipPath id="clip0_296_31353">
<rect width="481" height="155" fill="white"/>
</clipPath>
</defs>
</svg>
